<?xml version="1.0" ?>
<svg style="background:white" viewBox="-35.90150451660156 -75 526 322.4019165039" stroke-linejoin="round" stroke-linecap="round" fill="black" xmlns="http://www.w3.org/2000/svg"><g><g><g><g><path d="M 7.5 -35 l -7.5 7.5 57.5 62.5 7.5 -7.5 -57.5 -62.5 z"></path><path d="M 65 27.5 l 15.05 0 l 10 -10 l -17.45 0 l -8.75 8.8 q -6.9 -0.2 -3.8 6.15 l 4.95 -4.95 z"></path><path d="M 17.5 52.5 l 7.5 7.5 l 7.5 -7.5 l -7.5 -7.5 l -7.5 7.5 z"></path></g><g><path d="M 110.05000305175781 -35 l -10 10 l 0 60 l 40 0 l 10 -10 l -40 0 l 0 -50 l 30 0 l 10 -10 l -40 0 z"></path><g><path d="M 155.20000305175782 17.5 l -7.5 7.5 l -11.1 0 q 3.05 5.25 -1.5 10 l 5 0 l 8.8 -8.85 q 0.445 14.232 18.8 18.85 q -12.993 -10.704 -12.45 -27.5 z"></path></g></g><g><path d="M 185.20001220703125 -35 l -7.5 7.5 57.5 62.5 7.5 -7.5 -57.5 -62.5 z"></path></g><g><path d="M 262.70001220703125 -35 l -10 10 l 0 60 l 10 -10 l 0 -50 l 30 0 l 10 -10 l -40 0 z"></path><path d="M 297.95001220703125 46.25 l -1.15 -1.25 q -6.55 11.7 -14.4 12.25 q -7.8 0.5 -17.45 -9.75 l -7.5 7.5 q 6.55 12.05 18.7 9.55 q 12.25 -2.5 21.8 -18.3 z"></path></g><g><path d="M 332.70001220703125 -35 l -10 10 l 0 60 l 10 -10 l 0 -60 z"></path><g><path d="M 332.70001220703125 -20 l 0 -15 l -10 10 l 0 -20 l -10 9.9 l 0 22.4 l 10 -9.95 l 0 5.15 q 5 -6.1 10 -2.5 z"></path></g><g><path d="M 322.70001220703125 20 l 0 15 l 10 -10 l 0 20 l 10 -9.9 l 0 -22.4 l -10 9.95 l 0 -5.15 q -5 6.1 -10 2.5 z"></path></g></g><g><path d="M 392.70001220703125 -35 l -10 10 l 0 20 l -20 0 l -10 10 l 0 30 l 30 0 l 10 -10 l -30 0 l 0 -20 l 20 0 l 10 -10 l 0 -30 z"></path><path d="M 382.70001220703125 -45 l 10 -10 l -30 0 l -10 10 l 30 0 z"></path></g></g></g><g><g><g><path d="M 11.25 105 l -10 10 l 0 30 l 30 30 l 7.5 -7.5 l -27.5 -27.5 l 0 -35 z"></path><path d="M 30 95 l 10 -10 l -30 0 l -10 10 l 30 0 z"></path><path d="M 12.5 192.5 l 7.5 7.5 l 7.5 -7.5 l -7.5 -7.5 l -7.5 7.5 z"></path></g><g><path d="M 50.996944427490234 175.05 l 50 0 l 10 -10 l 0 -27 l -33.1 -33.1 l -7.5 7.5 l 30.6 30.6 l 0 22 l -40 0 l -10 10 z"></path><g><path d="M 66.64694442749024 175.0500144958496 l -15.65 0 l 10 -10 q -17.75 -9.4 -6.85 -21.2 q -2.15 12.25 15.5 14.85 l -6.3 6.35 l 8.1 0 q -9.5 4.8 -4.8 10 z"></path></g><path d="M 72.99847221374512 87.45000076293945 l 7.5 7.5 l 7.5 -7.5 l -7.5 -7.5 l -7.5 7.5 z"></path><path d="M 66.74847221374512 192.5500144958496 l 20 20 l 7.5 -7.5 l -20 -20 l -7.5 7.5 z"></path></g><g><path d="M 160.9969482421875 175 l 10 -10 l 0 -60 l -10 10 l 0 50 l -30 0 l -10 10 l 40 0 z"></path><path d="M 138.4969482421875 87.5 l 7.5 7.5 l 7.5 -7.5 l -7.5 -7.5 l -7.5 7.5 z"></path><path d="M 138.4969482421875 192.5 l 7.5 7.5 l 7.5 -7.5 l -7.5 -7.5 l -7.5 7.5 z"></path></g><g><path d="M 188.4969482421875 105 l -7.5 7.5 57.5 62.5 7.5 -7.5 -57.5 -62.5 z"></path><path d="M 245.9969482421875 167.5 l 15.05 0 l 10 -10 l -17.45 0 l -8.75 8.8 q -6.9 -0.2 -3.8 6.15 l 4.95 -4.95 z"></path></g><g><path d="M 331.0469665527344 115 l 10 -10 l -50 0 l -10 10 l 0 35 l 10 -10 l 15 0 l 0 35 l 10 -10 l 0 -35 l -17.35 0 l -7.65 7.6 l 0 -22.6 l 40 0 z"></path><g><path d="M 342.8469665527344 126.8 l -11.8 -11.8 l 10 -10 l -11.15 0 q 3.75 5.2 -5.8 10 l 4.65 0 l -5.9 5.9 l 13 12.9 l 7 -7 z"></path></g><g><path d="M 316.0469665527344 165 l 15 0 l 10 -10 l -17.45 0 l -7.6 7.6 l 0.05 -5.05 q -4.6 6.3 -10 4 l 0 13.45 l 9.95 -10 z"></path></g><path d="M 304.4469680786133 87.5 l 7.5 7.5 l 7.5 -7.5 l -7.5 -7.5 l -7.5 7.5 z"></path><path d="M 332.1969680786133 186.25 l -1.15 -1.25 q -6.55 11.7 -14.4 12.25 q -7.8 0.5 -17.45 -9.75 l -7.5 7.5 q 6.55 12.05 18.7 9.55 q 12.25 -2.5 21.8 -18.3 z"></path></g><g><path d="M 372.84698486328125 128.85 l -10 10 l 0 -33.85 l -10 10 l 0 36.2 l 10 -9.95 l 0 33.75 l 10 -10 l 0 -36.15 z"></path><g><path d="M 362.84698486328125 172.6 l -7.5 7.55 q 16.8 -0.55 27.5 12.45 q -4.6 -18.35 -18.85 -18.8 l 8.85 -8.8 l 0 -5 q -4.75 4.55 -10 1.5 l 0 11.1 z"></path></g></g><g><path d="M 435.34698486328125 175 l 7.5 -7.5 l -31.25 -31.25 l 31.25 -31.25 l -40 0 l -10 10 l 37.6 0 l -27.5 27.6 l 32.4 32.4 z"></path><g><path d="M 434.1969848632813 173.8 l -7.5 7.55 q 17.7 8.5 27.5 -7.5 q -11.7 7.3 -18.85 1.15 l 3.7 -3.65 q -1.81 -1.308 -4.55 -2.1 q -1.8 -0.5 -0.3 4.55 z"></path></g><path d="M 410.6664276123047 216.79898071289062 q 0.75 5.3 5.4 8.4 q 4.9 3.3 12.95 3.2 l 7.5 -7.5 q -14.9 -0.4 -18.6 -8.55 q -3.75 -8.2 7.45 -16.9 l -1.25 -1.15 q -7.35 5.2 -10.9 11.4 q -3.3 5.85 -2.55 11.1 z"></path></g></g></g></g></svg>